<svg width="1024" height="1024" viewBox="0 0 1024 1024" fill="none" xmlns="http://www.w3.org/2000/svg">
<rect width="1024" height="1024" fill="#FF0000"/>
<path d="M793.402 222.23H335.398C317.975 222.23 303.805 236.406 303.805 253.828V301.794H230.598C213.175 301.794 199 315.969 199 333.392V739.973C199 773.763 226.381 801.282 260.128 801.526H260.252C260.362 801.531 260.462 801.54 260.572 801.54H584.953C590.016 801.54 594.123 797.438 594.123 792.37C594.123 787.308 590.016 783.2 584.953 783.2H304.373C315.353 772.077 322.144 756.803 322.144 739.973V525.535C322.144 520.473 318.037 516.365 312.974 516.365C307.907 516.365 303.805 520.473 303.805 525.535V739.973C303.805 763.729 284.538 783.067 260.806 783.196C260.73 783.196 260.653 783.186 260.572 783.186C236.735 783.181 217.34 763.796 217.34 739.973V333.392C217.34 326.085 223.286 320.134 230.598 320.134H303.805V491.301C303.805 496.368 307.907 500.471 312.974 500.471C318.037 500.471 322.144 496.368 322.144 491.301V253.828C322.144 246.516 328.091 240.57 335.398 240.57H793.402C800.714 240.57 806.66 246.516 806.66 253.828V739.973C806.66 763.81 787.265 783.2 763.428 783.2H619.188C614.12 783.2 610.018 787.308 610.018 792.37C610.018 797.438 614.12 801.54 619.188 801.54H763.428C797.38 801.54 825 773.921 825 739.973V253.828C825 236.406 810.825 222.23 793.402 222.23V222.23Z" fill="white"/>
<path d="M399.907 588.125H525.674C537.638 588.125 547.371 578.391 547.371 566.427V440.661C547.371 428.697 537.638 418.963 525.674 418.963H399.907C387.943 418.963 378.21 428.697 378.21 440.661V566.427C378.21 578.391 387.943 588.125 399.907 588.125V588.125ZM396.55 440.661C396.55 438.808 398.054 437.303 399.907 437.303H525.674C527.522 437.303 529.031 438.808 529.031 440.661V566.427C529.031 568.276 527.522 569.785 525.674 569.785H399.907C398.054 569.785 396.55 568.276 396.55 566.427V440.661Z" fill="white"/>
<path d="M580.703 437.303H750.895C755.958 437.303 760.065 433.201 760.065 428.133C760.065 423.066 755.958 418.963 750.895 418.963H580.703C575.64 418.963 571.533 423.066 571.533 428.133C571.533 433.201 575.64 437.303 580.703 437.303V437.303Z" fill="white"/>
<path d="M580.703 512.716H750.895C755.958 512.716 760.065 508.609 760.065 503.546C760.065 498.479 755.958 494.376 750.895 494.376H580.703C575.64 494.376 571.533 498.479 571.533 503.546C571.533 508.609 575.64 512.716 580.703 512.716V512.716Z" fill="white"/>
<path d="M580.703 588.125H750.895C755.958 588.125 760.065 584.017 760.065 578.955C760.065 573.887 755.958 569.785 750.895 569.785H580.703C575.64 569.785 571.533 573.887 571.533 578.955C571.533 584.017 575.64 588.125 580.703 588.125V588.125Z" fill="white"/>
<path d="M387.38 663.533H750.896C755.958 663.533 760.066 659.431 760.066 654.363C760.066 649.301 755.958 645.193 750.896 645.193H387.38C382.317 645.193 378.21 649.301 378.21 654.363C378.21 659.431 382.317 663.533 387.38 663.533V663.533Z" fill="white"/>
<path d="M387.38 738.946H750.896C755.958 738.946 760.066 734.844 760.066 729.776C760.066 724.709 755.958 720.606 750.896 720.606H387.38C382.317 720.606 378.21 724.709 378.21 729.776C378.21 734.844 382.317 738.946 387.38 738.946V738.946Z" fill="white"/>
<path d="M378.444 372.039V275.144C378.444 273.152 379.389 271.633 381.281 270.592C383.172 269.546 385.465 269.021 388.149 269.021C391.735 269.021 394.467 269.671 396.363 270.965C398.25 272.259 400.342 275.048 402.634 279.323L431.448 335.016V274.996C431.448 273.004 432.394 271.514 434.285 270.516C436.171 269.522 438.464 269.021 441.153 269.021C443.842 269.021 446.129 269.522 448.021 270.516C449.912 271.514 450.858 273.004 450.858 274.996V372.039C450.858 373.935 449.883 375.426 447.944 376.519C446.005 377.618 443.741 378.162 441.153 378.162C435.875 378.162 432.14 376.123 429.953 372.039L397.854 312.019V372.039C397.854 373.935 396.884 375.426 394.945 376.519C393.006 377.618 390.737 378.162 388.149 378.162C385.465 378.162 383.172 377.618 381.286 376.519C379.389 375.426 378.444 373.935 378.444 372.039Z" fill="white"/>
<path d="M468.772 372.039V275.144C468.772 273.253 469.618 271.762 471.313 270.664C473.004 269.57 474.991 269.021 477.283 269.021H530.435C532.422 269.021 533.946 269.871 534.987 271.562C536.033 273.253 536.558 275.196 536.558 277.384C536.558 279.772 536.009 281.816 534.915 283.507C533.817 285.202 532.322 286.043 530.435 286.043H488.182V315.902H510.878C512.764 315.902 514.259 316.676 515.358 318.219C516.451 319.761 517.001 321.576 517.001 323.668C517.001 325.559 516.475 327.274 515.429 328.821C514.383 330.364 512.869 331.133 510.878 331.133H488.182V361.145H530.435C532.322 361.145 533.817 361.991 534.915 363.681C536.009 365.377 536.558 367.416 536.558 369.804C536.558 371.992 536.033 373.935 534.987 375.626C533.946 377.322 532.422 378.162 530.435 378.162H477.283C474.991 378.162 473.004 377.618 471.313 376.524C469.618 375.426 468.772 373.935 468.772 372.039V372.039Z" fill="white"/>
<path d="M546.263 276.787C546.263 274.695 547.605 272.88 550.294 271.337C552.978 269.795 555.767 269.021 558.652 269.021C562.239 269.021 564.378 270.315 565.071 272.904L588.664 353.828L601.354 301.87C602.247 298.284 605.433 296.493 610.906 296.493C616.284 296.493 619.417 298.284 620.315 301.87L633.005 353.828L656.593 272.904C657.291 270.315 659.43 269.021 663.017 269.021C665.902 269.021 668.686 269.795 671.375 271.337C674.064 272.88 675.406 274.695 675.406 276.787C675.406 277.384 675.306 277.981 675.11 278.578L645.546 372.488C644.052 376.873 639.82 379.06 632.857 379.06C629.872 379.06 627.183 378.487 624.795 377.341C622.407 376.199 620.96 374.58 620.463 372.488L610.911 332.179L601.206 372.488C600.705 374.58 599.262 376.199 596.874 377.341C594.486 378.487 591.797 379.06 588.812 379.06C585.727 379.06 582.99 378.487 580.602 377.341C578.21 376.199 576.719 374.58 576.122 372.488L546.559 278.578C546.358 277.981 546.263 277.384 546.263 276.787V276.787Z" fill="white"/>
<path d="M680.335 360.992C680.335 358.705 681.204 356.388 682.947 354.048C684.686 351.713 686.654 350.542 688.846 350.542C690.135 350.542 691.606 351.163 693.249 352.405C694.892 353.642 696.483 355.018 698.025 356.512C699.568 358.012 701.784 359.383 704.673 360.625C707.558 361.866 710.744 362.482 714.225 362.482C719.006 362.482 722.985 361.389 726.17 359.197C729.356 357.009 730.946 353.776 730.946 349.496C730.946 346.507 730.077 343.846 728.334 341.506C726.595 339.171 724.303 337.227 721.466 335.684C718.634 334.142 715.52 332.647 712.138 331.204C708.752 329.762 705.342 328.143 701.908 326.352C698.474 324.561 695.341 322.545 692.504 320.306C689.667 318.066 687.375 315.081 685.636 311.346C683.893 307.616 683.024 303.36 683.024 298.584C683.024 293.23 684.094 288.502 686.233 284.414C688.373 280.321 691.234 277.14 694.816 274.867C698.398 272.593 702.228 270.926 706.312 269.866C710.39 268.806 714.722 268.271 719.302 268.271C721.886 268.271 724.623 268.452 727.512 268.811C730.397 269.169 733.458 269.756 736.697 270.573C739.93 271.39 742.566 272.67 744.606 274.403C746.645 276.142 747.667 278.186 747.667 280.541C747.667 282.757 746.97 285.049 745.58 287.418C744.185 289.787 742.294 290.967 739.906 290.967C739.008 290.967 736.568 290.021 732.589 288.13C728.606 286.238 724.179 285.293 719.302 285.293C713.925 285.293 709.769 286.315 706.837 288.354C703.9 290.398 702.429 293.206 702.429 296.788C702.429 299.678 703.623 302.19 706.016 304.33C708.404 306.469 711.365 308.213 714.899 309.555C718.428 310.897 722.263 312.592 726.395 314.632C730.521 316.671 734.356 318.887 737.891 321.275C741.42 323.663 744.386 327.121 746.774 331.649C749.162 336.181 750.356 341.482 750.356 347.553C750.356 357.759 747.094 365.639 740.579 371.184C734.055 376.729 725.473 379.504 714.822 379.504C705.366 379.504 697.256 377.56 690.489 373.677C683.716 369.804 680.335 365.572 680.335 360.992V360.992Z" fill="white"/>
</svg>
